# xmcd CD database file
#
# Track frame offsets:
#	150
#	11870
#	23928
#	34413
#	49979
#	62695
#	79474
#	92228
#	110460
#	127157
#	143965
#	159267
#
# Disc length: 2264 seconds
#
# Revision: 0
# Processed by: cddbd v1.5.2PL0 Copyright (c) Steve Scherf et al.
# Submitted via: jetAudio 7
#
DISCID=ac08d60c
DTITLE=Willie Nelson -  Dyan Cannon - Amy Irving - Honeysuckle Rose (Di
DTITLE=sc 1)
DYEAR=1900
DGENRE=Country
TTITLE0=On The Road Again
TTITLE1=Pick Up The Tempo
TTITLE2=Heaven Or Hell
TTITLE3=Follin' Around
TTITLE4=Blue Eyes Crying In The Rain
TTITLE5=Working Man Blues
TTITLE6=Jumpin' Cotton Eyed Joe
TTITLE7=Whiskey River
TTITLE8=Bloody Mary Morning
TTITLE9=Loving You Was Easier (Than Anything I'll Ever Do Again)
TTITLE10=I Don't Do Windows
TTITLE11=Coming Back To Texas
EXTD=
EXTT0=
EXTT1=
EXTT2=
EXTT3=
EXTT4=
EXTT5=
EXTT6=
EXTT7=
EXTT8=
EXTT9=
EXTT10=
EXTT11=
PLAYORDER=
